<?xml version="1.0" encoding="UTF-8"?>
<svg id="Capa_1" xmlns="http://www.w3.org/2000/svg" version="1.1" xmlns:xlink="http://www.w3.org/1999/xlink" viewBox="0 0 498.4 316.1">
  <!-- Generator: Adobe Illustrator 29.8.2, SVG Export Plug-In . SVG Version: 2.1.1 Build 3)  -->
  <defs>
    <style>
      .st0 {
        fill: url(#Degradado_sin_nombre_169);
      }

      .st1 {
        fill: #a8d2ff;
      }

      .st2 {
        fill: url(#Degradado_sin_nombre_54);
      }

      .st3 {
        isolation: isolate;
      }

      .st4 {
        fill: none;
        font-family: NiagaraSolid-Reg, 'Niagara Solid';
        font-size: 370px;
        stroke: #1a5bac;
        stroke-miterlimit: 10;
      }

      .st5 {
        fill: #4a8fe3;
      }

      .st6 {
        fill: url(#Degradado_sin_nombre);
      }

      .st7 {
        fill: #1a5bac;
      }

      .st8 {
        fill: #0a2d5e;
      }

      .st9 {
        fill: url(#Degradado_sin_nombre1);
      }

      .st10 {
        fill: #6af;
      }

      .st11 {
        fill: #87c1ff;
      }
    </style>
    <linearGradient id="Degradado_sin_nombre" data-name="Degradado sin nombre" x1="476.5" y1="912.5" x2="476.5" y2="912.5" gradientTransform="translate(0 -716)" gradientUnits="userSpaceOnUse">
      <stop offset="0" stop-color="#0a2d5e"/>
      <stop offset=".4" stop-color="#1a5bac"/>
      <stop offset=".5" stop-color="#4a8fe3"/>
      <stop offset="1" stop-color="#87c1ff"/>
    </linearGradient>
    <linearGradient id="Degradado_sin_nombre1" data-name="Degradado sin nombre" x1="479.5" y1="863.8" x2="220.2" y2="878.6" xlink:href="#Degradado_sin_nombre"/>
    <linearGradient id="Degradado_sin_nombre_169" data-name="Degradado sin nombre 169" x1="20" y1="235.9" x2="162.4" y2="105.4" gradientUnits="userSpaceOnUse">
      <stop offset="0" stop-color="#4a8fe3"/>
      <stop offset=".8" stop-color="#1b5cae"/>
      <stop offset=".8" stop-color="#1a5bac"/>
    </linearGradient>
    <linearGradient id="Degradado_sin_nombre_54" data-name="Degradado sin nombre 54" x1="16.6" y1="160.5" x2="268.2" y2="160.5" gradientUnits="userSpaceOnUse">
      <stop offset="0" stop-color="#1a5bac"/>
      <stop offset=".5" stop-color="#1b5cad"/>
      <stop offset=".6" stop-color="#2163b4"/>
      <stop offset=".8" stop-color="#2c6ec0"/>
      <stop offset=".9" stop-color="#3c7ed1"/>
      <stop offset=".9" stop-color="#5093e7"/>
      <stop offset="1" stop-color="#6af"/>
    </linearGradient>
  </defs>
  <g id="Objeto_generativo">
    <path class="st8" d="M377.9,116.1c1.1.2.9.5,1,.5v2.9c-.6-.3-1.2-.9-1.9-.2v155.2c-3.6,2.1.5,2.4,0,5.4h-1.5c-1.1,0-2.3-1.5-2.4-1.5V116.8c-.4-.5-9.2-.2-10.7-.2-.2-1.5,1.3-.9,2.2-1,4.1,0,9.4-.4,13.4.5h-.1Z"/>
    <path class="st7" d="M334.6,141.4c1.5.5,4.3,3,6.3,3.2l-1,133.5v-131.5l-1,32.9c0-5.6,1.1-29.6,0-32.9-.6-1.8-4.9-3.5-3.4,1.2l-1,129.3c-.5,1.2-3.4-.2-3.9-.2v-134.5c.2,0,.7-1.4,2.9-1.5,1,.2.9.5,1,.5h0Z"/>
    <path class="st8" d="M473.9,202.8c.3-.7.7-1.7,1-2.4-.4.9-.6,1.6-1,2.4Z"/>
    <path class="st6" d="M476.5,196.5"/>
    <path class="st9" d="M488.4,206.6c-40,95.2-167.5,118.3-237.2,41.2-74.7-82-25.1-209.4,83.6-223.3,2.4-.3,13.3-.1,14.1-.5,1.8-.8-.3-7.7,1.5-8.3l44.6,13.9-44.6,18.3-1-10.7c-84.7-.5-143,84.3-112.8,163.9,20.9,55.1,81,87.4,138.8,78.7h1.6c11.6-.5,35.2-10.1,45.6-16.1,25.1-14.7,40.5-34.8,51.4-60.9.4-.9.6-1.6,1-2.4"/>
    <path class="st5" d="M362.3,116.6c1.5,0,10.4-.2,10.7.2v161.5c-7.7.4-15.6,2.4-23.4.7V116.8c.4-.5,11.1-.3,12.7-.2h0Z"/>
    <path class="st10" d="M330.7,142.4v134.5c-2.7-.4-22.3-5.8-22.9-7.1v-127.1c.9-2,20.1,0,22.9-.2h0Z"/>
    <path class="st11" d="M338.9,179.4c.2,32.7-.2,65.4,0,98.2l-3.4-.5v-129.3c-1.5-4.7,2.8-3,3.4-1.2,1.1,3.2,0,27.3,0,32.9h0Z"/>
    <path class="st8" d="M333.6,140.9c-2.2,0-2.7,1.4-2.9,1.5-2.8.2-22-1.8-22.9.2v127.2c.6,1.2,20.2,6.7,22.9,7.1.5,0,3.4,1.4,3.9.2l1-129.3v129.3l3.4.5c-.2-32.7.2-65.4,0-98.2l1-32.9v131.5l1-133.5c-2.1-.2-4.8-2.6-6.3-3.2l7.3,2.7v134l5.6,1.2.7-163.9,29.7.7c-4-.9-9.2-.6-13.4-.5-.9,0-2.4-.5-2.2,1-1.6,0-12.3-.3-12.7.2v162.2c7.7,1.7,15.7-.3,23.4-.7.1,0,1.4,1.5,2.4,1.5-57.8,8.8-117.9-23.6-138.8-78.7-30.2-79.5,28-164.3,112.7-163.8l1,10.7,44.6-18.3-44.6-13.9c-1.8.6.3,7.5-1.5,8.3-.8.4-11.8.2-14.1.5-108.7,13.9-158.3,141.3-84,223.4,69.7,77.1,197.3,54.1,237.2-41.2-33.6,91.6-154.5,117.1-226.8,53.6-89.5-78.7-44.3-221.6,73.1-237.3,2.2-.3,12.4-.2,13.2-.5.6-4.3.6-3.8-.3-10.5l52.2,17.1c.3.8-2.1,1.9-2.7,2.2-3.8,2-44.2,18.4-46.8,18.5-.5,0-1.4.2-1.7-.2v-10.2c-32.5-2-67.5,15.3-88.7,39.5-40.6,46.5-38.8,117.3,4.2,161.5l.7-74.8c11.9.7,25-3.4,35.6,3.4v97.4l5.1,2.7,1.2-127.9c.6-1.3,24.6-.9,27.3-.2h0Z"/>
    <path class="st1" d="M288.8,166.2l-.5,94c-8.2-5.2-15.9-11.5-22.9-18.3l.5-75.5c7.6.6,15.2-.6,22.9-.2h0Z"/>
    <path class="st7" d="M296.6,264.7l.5-93.8c-.2-.5-2.8-1.6-3.4-1.2-4.1,2.2,1.1,82.2-1,92.8-2.2.4-2.9-1.3-4.4-2.2l.5-94c.3,0,1.4-.7,2.7-.5,2.6.3,4.8,4.1,7.6,3.2v96l-.7.7c-.4-1.2-.6-.5-1.7-1h0Z"/>
    <path class="st11" d="M296.6,264.7c-1.2-.5-2.5-1.1-3.4-2.2l.5-92.8c.7-.4,3.2.7,3.4,1.2l-.5,93.8h0Z"/>
    <path class="st11" d="M378.9,119.5c.4.2,1.1,0,1.5.7v156.9c-4,1.6-3.1.3-3.4-2.7V119.2c.7-.7,1.3,0,1.9.2h0Z"/>
    <path class="st8" d="M473.9,202.8c-10.9,26.1-26.3,46.2-51.4,60.9-10.3,6-33.9,15.5-45.6,16.1.5-3-3.6-3.3,0-5.4.3,3-.6,4.3,3.4,2.7V120.2c-.4-.8-1.1-.6-1.5-.7v-2.9c1.7.6,3.7.6,4.9,2.2l.2,157.6,5.6-1.7.7-182.9c11.6,1.1,24.1-2.8,34.4,4.1v163.7c21.7-12.6,39.1-33.8,49.2-56.8h.1Z"/>
    <path class="st7" d="M391.3,93.2l23.1.7v172c-2.4,1.7-22.4,9.8-23.4,8.3l.2-181h0Z"/>
    <path class="st11" d="M418.1,96.1c.4-.2,3.4,1.6,3.6,2.2v163.2l-3.2,2.2-.5-167.6h0Z"/>
    <path class="st7" d="M381.6,122.9l1.2,76.7-.7,77.7c-1.5-51.4-.6-103-.5-154.4h0Z"/>
    <path class="st7" d="M416.2,101.5c1.5,54,.6,108.2.5,162.2l-.2-84-.2-78.2h-.1Z"/>
    <path class="st7" d="M347.5,103.9c1.2-.2.5,1-.5,1-.5-.2.4-1,.5-1Z"/>
  </g>
  <path class="st8" d="M387.3,86.4c-37.1,26.1-91.2,51.1-136.1,58.5-.9.1-3.5.7-4.2,0,2.7-.8,5.4-1.6,8.1-2.5,50.1-15.4,88.9-32.8,128.7-67.3,4.1-3.6,9-6.5,12.8-10.6,0-1.5-7.4-3.1-9.1-3.7-1.2-1.2,28.9-12.2,31.2-12l-6.4,31.9-6.6-9.1c-6.1,5-12,10.2-18.4,14.7h0Z"/>
  <g class="st3">
    <g class="st3">
      <text class="st4" transform="translate(9.8 290.1)"><tspan x="0" y="0">RV</tspan></text>
      <g>
        <path class="st0" d="M120.7,290.1h-12.8c-17.3,0-26-9-26-27.1v-91.6c0-4.1-1.4-7.6-4.3-10.5s-6.4-4.3-10.5-4.3h-12.8v126.8h9.2v6.7H15.4v-6.7h9.2V37.7h-9.2v-6.7h51.7c12.3,0,22.8,3.7,31.4,11.1,8.7,7.4,13,16.3,13,26.6v50c0,16.1-8.6,27.6-25.8,34.3,17.2,7.2,25.8,18.7,25.8,34.5v85.8c0,6.6,2.8,9.9,8.5,9.9h.7v6.7ZM81.8,135.1V52.5c0-4.1-1.4-7.6-4.3-10.5s-6.4-4.3-10.5-4.3h-12.8v112.2h12.8c4.1,0,7.6-1.4,10.5-4.3s4.3-6.4,4.3-10.5Z"/>
        <path class="st0" d="M224.4,37.7h-9.2l-26,252.4h-29.4l-24.2-252.4h-9.2v-6.7h48.1v6.7h-9.2l19.3,221.7,21.5-221.7h-9.4v-6.7h27.8v6.7Z"/>
      </g>
    </g>
    <g>
      <g>
        <path class="st2" d="M120.7,290.1h-12.8c-17.3,0-26-9-26-27.1v-91.6c0-4.1-1.4-7.6-4.3-10.5s-6.4-4.3-10.5-4.3h-12.8v126.8h9.2v6.7H15.4v-6.7h9.2V37.7h-9.2v-6.7h51.7c12.3,0,22.8,3.7,31.4,11.1,8.7,7.4,13,16.3,13,26.6v50c0,16.1-8.6,27.6-25.8,34.3,17.2,7.2,25.8,18.7,25.8,34.5v85.8c0,6.6,2.8,9.9,8.5,9.9h.7v6.7ZM81.8,135.1V52.5c0-4.1-1.4-7.6-4.3-10.5s-6.4-4.3-10.5-4.3h-12.8v112.2h12.8c4.1,0,7.6-1.4,10.5-4.3s4.3-6.4,4.3-10.5Z"/>
        <path class="st2" d="M224.4,37.7h-9.2l-26,252.4h-29.4l-24.2-252.4h-9.2v-6.7h48.1v6.7h-9.2l19.3,221.7,21.5-221.7h-9.4v-6.7h27.8v6.7Z"/>
      </g>
      <g>
        <path class="st2" d="M120.7,290.1h-12.8c-17.3,0-26-9-26-27.1v-91.6c0-4.1-1.4-7.6-4.3-10.5s-6.4-4.3-10.5-4.3h-12.8v126.8h9.2v6.7H15.4v-6.7h9.2V37.7h-9.2v-6.7h51.7c12.3,0,22.8,3.7,31.4,11.1,8.7,7.4,13,16.3,13,26.6v50c0,16.1-8.6,27.6-25.8,34.3,17.2,7.2,25.8,18.7,25.8,34.5v85.8c0,6.6,2.8,9.9,8.5,9.9h.7v6.7ZM81.8,135.1V52.5c0-4.1-1.4-7.6-4.3-10.5s-6.4-4.3-10.5-4.3h-12.8v112.2h12.8c4.1,0,7.6-1.4,10.5-4.3s4.3-6.4,4.3-10.5Z"/>
        <path class="st2" d="M224.4,37.7h-9.2l-26,252.4h-29.4l-24.2-252.4h-9.2v-6.7h48.1v6.7h-9.2l19.3,221.7,21.5-221.7h-9.4v-6.7h27.8v6.7Z"/>
      </g>
      <g>
        <path class="st2" d="M120.7,290.1h-12.8c-17.3,0-26-9-26-27.1v-91.6c0-4.1-1.4-7.6-4.3-10.5s-6.4-4.3-10.5-4.3h-12.8v126.8h9.2v6.7H15.4v-6.7h9.2V37.7h-9.2v-6.7h51.7c12.3,0,22.8,3.7,31.4,11.1,8.7,7.4,13,16.3,13,26.6v50c0,16.1-8.6,27.6-25.8,34.3,17.2,7.2,25.8,18.7,25.8,34.5v85.8c0,6.6,2.8,9.9,8.5,9.9h.7v6.7ZM81.8,135.1V52.5c0-4.1-1.4-7.6-4.3-10.5s-6.4-4.3-10.5-4.3h-12.8v112.2h12.8c4.1,0,7.6-1.4,10.5-4.3s4.3-6.4,4.3-10.5Z"/>
        <path class="st2" d="M224.4,37.7h-9.2l-26,252.4h-29.4l-24.2-252.4h-9.2v-6.7h48.1v6.7h-9.2l19.3,221.7,21.5-221.7h-9.4v-6.7h27.8v6.7Z"/>
      </g>
    </g>
  </g>
</svg>