<?xml version="1.0" encoding="UTF-8"?>
<svg id="Capa_1" xmlns="http://www.w3.org/2000/svg" version="1.1" xmlns:xlink="http://www.w3.org/1999/xlink" viewBox="0 0 492 298.9">
  <!-- Generator: Adobe Illustrator 29.8.2, SVG Export Plug-In . SVG Version: 2.1.1 Build 3)  -->
  <defs>
    <style>
      .st0 {
        fill: #a8d2ff;
      }

      .st1 {
        fill: url(#Degradado_sin_nombre_16);
      }

      .st2 {
        fill: #175499;
      }

      .st3 {
        fill: #4a8fe3;
      }

      .st4 {
        fill: url(#Degradado_sin_nombre);
      }

      .st5, .st6 {
        fill: #1a5bac;
      }

      .st7 {
        fill: #0a2d5e;
      }

      .st8 {
        fill: #6af;
      }

      .st9 {
        fill: #195294;
      }

      .st6 {
        stroke: #0c3368;
        stroke-miterlimit: 10;
      }

      .st10 {
        fill: #87c1ff;
      }
    </style>
    <linearGradient id="Degradado_sin_nombre" data-name="Degradado sin nombre" x1="479.1" y1="860.2" x2="220.1" y2="875" gradientTransform="translate(0 -716)" gradientUnits="userSpaceOnUse">
      <stop offset="0" stop-color="#0a2d5e"/>
      <stop offset=".4" stop-color="#1a5bac"/>
      <stop offset=".5" stop-color="#4a8fe3"/>
      <stop offset="1" stop-color="#87c1ff"/>
    </linearGradient>
    <linearGradient id="Degradado_sin_nombre_16" data-name="Degradado sin nombre 16" x1="17" y1="153.7" x2="122.7" y2="153.7" gradientUnits="userSpaceOnUse">
      <stop offset="0" stop-color="#0b3062"/>
      <stop offset="1" stop-color="#17519c"/>
    </linearGradient>
  </defs>
  <g id="Objeto_generativo">
    <path class="st7" d="M378.9,116c-.6-.2-1.4-.5-1.9-.7v155.9c0,0,.3,4.6,0,5.2-.6,0-1.7.2-2.2.2s-1.5-1.5-1.6-1.5V113.5c-2,0-10.8-.2-10.8-.2,0-.2,0-1.2,0-1.2,0,0,8.2,0,10.9.1s5.5.9,5.5.9"/>
    <path class="st7" d="M362.6,113.4s-12.1-.3-12.8,0v162.2s15.7-.3,23.4-.7c.1,0,1.4,1.8,2.4,1.8-57.8,8.8-117.9-23.9-138.8-79-30.2-79.5,28-164.3,112.7-163.8l.2,11,45.4-18.6-44.6-13.9c-.3,2.5.3,7.5-1.5,8.3-.8.4-11.8.2-14.1.5-108.7,13.9-158.3,141.3-84,223.4,69.7,77.1,197.3,54.1,237.2-41.2-33.6,91.6-154.5,117.1-226.8,53.6-89.5-78.7-44.3-221.6,73.1-237.3,2.2-.3,12.4-.2,13.2-.5.9-5.1.5-6-.3-10.5l52.2,17.1c-1.5,1.3-3.5,2.2-4,2.5-3.8,2-43.9,17.8-45.3,18-.5,0-1.3.5-1.9.3v-10.5c-32.5-2-67.5,15.3-88.7,39.5-40.6,46.5-38.8,117.3,4.2,161.5l.7-74.8c11.9.7,25-3.4,35.6,3.4v97.4l5.1,2.7,1.2-128.4c4.1-.3,24.5-.2,24.5-.2,0,0,0,1.6,0,2.1-2.8-.1-14-.2-22.9,0v127.2c.6,1.2,20.2,6.7,22.9,7.1.6.1,2.1.3,3.6.6s.1,0,.1-.1l1.1-129.5v129.7c-.1,0,3.4.5,3.4.5-.2-32.7.1-65.3,0-98.1v-33.3s2-1.5,2-1.5c-1.6-.3-9.9-2.4-10.2-2.5,0-1.1,0-1.9.1-2.1l11.2,3.5v134.3l5.9.6.4-163.6h14.1"/>
    <path class="st9" d="M340.9,141.7l-2,1.6c0-.2-1.8-.4-3.2-.9l-1.1,131.7c-1.4,0-3.4-.6-3.9-.6v-134.5c.2,0,8.5,2.3,10.2,2.7Z"/>
    <path class="st4" d="M487.7,203.9c-40,95.2-164.7,117.3-235.8,41.5-76-81-25.9-210.4,82.8-224.3,2.4-.3,13.3-.1,14.1-.5.7-3.4,1.2-4.7.6-9l45.9,14.7-45.7,18.5-.3-11.1c-84.7-.5-142.4,86.2-112.1,164.6,11.3,26,25.1,41.5,41.1,53.5,44.4,33.2,98.1,24.6,98.6,24.5,8.9-1.1,19.2-4.4,28-7.9s12.8-5.3,17.6-8.2c25.8-15.8,40.5-35,51.4-61.1.4-.9,1-1.2,1.8-1,.6,0,13.3,2.1,12.2,5.2"/>
    <path class="st3" d="M373.1,113.5v161.3c-9.8.9-17.7.9-23.5.8V113.2c.8,0,22.4.2,23.5.3Z"/>
    <path class="st8" d="M330.7,139v134.5c-2.7-.4-22.3-5.8-22.9-7.1v-127.2c1.7,0,18.9-.3,22.9-.1h0Z"/>
    <path class="st10" d="M338.9,176c.2,32.7-.1,65.7,0,98.5l-3.5-.5v-131.7c0,0,2,.3,3.4.8,0,3.7,0,27.4,0,32.9h0Z"/>
    <path class="st0" d="M288.8,162.9l-.5,94c-8.2-5.2-15.9-11.5-22.9-18.3l.5-75.5c7.6.6,15.2-.6,22.9-.2h0Z"/>
    <path class="st2" d="M296.6,261.3l.5-93.3c-.2-.5-2.8-1.6-3.4-1.2,0,5.9-.5,81.3-.5,92.8-2.2-1.3-3.3-1.8-4.9-2.8l.5-93.9c.3,0,3.3.5,4.9,1.1,2.5.9,2.2.9,5.1,2.2l.2,96.4-2.5-1.3Z"/>
    <path class="st10" d="M296.6,261.3c-1.6-.8-2.2-1-3.4-1.7l.5-92.8c.7-.4,3.2.7,3.4,1.2l-.5,93.3Z"/>
    <path class="st10" d="M380.4,116.8v157c-1.3.4-3.4.5-3.4.5V115.4c1.1.2,2.6.8,3.4,1.4Z"/>
    <path class="st7" d="M474,199.4c-10.9,26.1-26.4,46.2-51.5,60.9-10.1,5.9-29.7,14-44.6,15.9s-1.6.2-1.8.2c-.8-2.2-1.7-4.3.8-5.3v3.1s1.7-.2,3.4-.6V116.8c-.9-.5-1.7-.9-1.7-.9v-2.9c-.1-.1,3,1,5,2.4l.2,157.5s2.3-.5,3-.7,2.6-.8,2.6-.8l.7-183c9,0,24.2.3,24.2.3,0,0,6.8,1,10.2,3.8v163.7c21.7-12.6,39.2-33.8,49.3-56.8h.1Z"/>
    <path class="st5" d="M414.2,90.8l.2,171c-9.4,4.5-12.1,5.7-23.5,9.2.4-60.2.8-120.5,1.2-180.7,0,0,21.5.4,22.1.4Z"/>
    <path class="st10" d="M418,92.4s2.5.5,4,1.5v164.2c-.1,0-3.5,2-3.5,2l-.5-167.7Z"/>
    <path class="st6" d="M387.3,83c-37.1,26.1-91.2,51.1-136.1,58.5-.9.1-3.5.7-4.2,0,2.7-.8,5.4-1.6,8.1-2.5,50.1-15.4,84.7-32.2,129.4-66.1,4.4-3.3,8.5-7,12.3-11.1,0-1.5-7.6-3.8-9.4-4.5-1.2-1.2,28.9-12.2,31.2-12l-6.4,31.9-6.6-9.1c-6.1,5-12,10.2-18.4,14.7h0Z"/>
  </g>
  <g>
    <path class="st1" d="M74.6,76.4c13,0,23.1,3.3,30.3,9.9,7.2,6.6,10.8,16.6,10.8,30s-2.1,18.9-6.3,25.4c-4.2,6.6-10.7,10.8-19.5,12.7v.4c7.8,1.2,13.5,3.7,17.1,7.6,3.6,3.9,5.8,10.2,6.7,18.8.3,2.9.5,6,.6,9.4.1,3.4.3,7.2.4,11.4.3,8.2.7,14.5,1.3,18.8.9,4.3,2.7,7.3,5.6,8.9v1.3h-33.8c-1.6-2.2-2.6-4.7-3-7.5s-.7-5.7-.9-8.8l-.9-29.7c-.3-6.1-1.8-10.8-4.5-14.3-2.7-3.5-7.4-5.2-13.9-5.2h-16.7v65.4h-31.2V76.4h57.6ZM61.2,144c7.5,0,13.3-1.8,17.3-5.3,4-3.5,6.1-9.5,6.1-17.9,0-14.3-7.2-21.4-21.7-21.4h-14.7v44.6h13Z"/>
    <path class="st1" d="M168.8,190.7h.6l23-114.3h32.3l-35.5,154.6h-40.1l-35.5-154.6h33.3l21.9,114.3Z"/>
  </g>
</svg>