<?xml version="1.0" encoding="UTF-8"?>
<svg id="Capa_1" xmlns="http://www.w3.org/2000/svg" version="1.1" xmlns:xlink="http://www.w3.org/1999/xlink" viewBox="0 0 630 316.1">
  <!-- Generator: Adobe Illustrator 29.8.2, SVG Export Plug-In . SVG Version: 2.1.1 Build 3)  -->
  <defs>
    <style>
      .st0 {
        fill: url(#Degradado_sin_nombre_169);
      }

      .st1 {
        fill: #a8d2ff;
      }

      .st2 {
        isolation: isolate;
      }

      .st3 {
        fill: none;
        font-family: NiagaraSolid-Reg, 'Niagara Solid';
        font-size: 370px;
        stroke: #1a5bac;
        stroke-miterlimit: 10;
      }

      .st4 {
        fill: #4a8fe3;
      }

      .st5 {
        fill: url(#Degradado_sin_nombre);
      }

      .st6 {
        fill: #1a5bac;
      }

      .st7 {
        fill: #0a2d5e;
      }

      .st8 {
        fill: #6af;
      }

      .st9 {
        fill: #87c1ff;
      }
    </style>
    <linearGradient id="Degradado_sin_nombre" data-name="Degradado sin nombre" x1="293.8" y1="863.1" x2="22.4" y2="878.6" gradientTransform="translate(0 -716)" gradientUnits="userSpaceOnUse">
      <stop offset="0" stop-color="#0a2d5e"/>
      <stop offset=".4" stop-color="#1a5bac"/>
      <stop offset=".5" stop-color="#4a8fe3"/>
      <stop offset="1" stop-color="#87c1ff"/>
    </linearGradient>
    <linearGradient id="Degradado_sin_nombre_169" data-name="Degradado sin nombre 169" x1="337.9" y1="259.4" x2="506.1" y2="105.3" gradientUnits="userSpaceOnUse">
      <stop offset="0" stop-color="#4a8fe3"/>
      <stop offset=".8" stop-color="#1b5cae"/>
      <stop offset=".8" stop-color="#1a5bac"/>
    </linearGradient>
  </defs>
  <g id="Objeto_generativo">
    <path class="st7" d="M179.9,116.1c1.1.2.9.5,1,.5v2.9c-.6-.3-1.2-.9-1.9-.2v155.2c-3.6,2.1.5,2.4,0,5.4h-1.5c-1.1,0-2.3-1.5-2.4-1.5V116.8c-.4-.5-9.2-.2-10.7-.2-.2-1.5,1.3-.9,2.2-1,4.1,0,9.4-.4,13.4.5h-.1Z"/>
    <path class="st6" d="M136.6,141.4c1.5.5,4.3,3,6.3,3.2l-1,133.5v-131.5l-1,32.9c0-5.6,1.1-29.6,0-32.9-.6-1.8-4.9-3.5-3.4,1.2l-1,129.3c-.5,1.2-3.4-.2-3.9-.2v-134.5c.2,0,.7-1.4,2.9-1.5,1,.2.9.5,1,.5h0Z"/>
    <path class="st7" d="M293.9,195.5c5.1-19.9,8-48.3,2.4-68.2,7.9,16,2.8,51.7-2.4,68.2Z"/>
    <path class="st7" d="M279.8,192.1c3.8-14,5.8-30,4.9-44.6-.4-6.7-4.1-16-2-21.7-1,2.8,2.6,17.5,2.9,22.2,1,15.5-1.4,29.4-5.9,44.1h.1Z"/>
    <path class="st7" d="M291,121.9c-2.7-.2-7.3,1.2-8.3,3.9,1.6-4.3,4.4-5.4,8.3-3.9Z"/>
    <path class="st7" d="M291,204.2c1-2.5,2.1-6.1,2.9-8.8-1,3.8-1.8,5.3-2.9,8.8Z"/>
    <path class="st7" d="M296.4,127.3c-1.3-2.7-2.4-4.2-5.4-5.4,4.2.2,4.4,2.1,5.4,5.4Z"/>
    <path class="st7" d="M276.9,200.4c.3-.7.7-1.8,1-2.4-.3.9-.6,1.6-1,2.4Z"/>
    <path class="st7" d="M275.9,202.8c.3-.7.7-1.7,1-2.4-.4.9-.6,1.6-1,2.4Z"/>
    <path class="st7" d="M290,206.7c.3-.8.8-1.9,1-2.4-.3.9-.6,1.6-1,2.4Z"/>
    <path class="st7" d="M279.3,193.5c.1-.5.4-1,.5-1.5-.2.6-.4,1.1-.5,1.5Z"/>
    <path class="st7" d="M278.8,195c.2-.5.3-1,.5-1.5-.1.5-.3,1-.5,1.5Z"/>
    <path class="st7" d="M278.3,196.5c.2-.5.3-1,.5-1.5-.2.5-.3,1-.5,1.5Z"/>
    <path class="st7" d="M277.8,197.9c.2-.5.3-1,.5-1.5-.2.5-.3.9-.5,1.5Z"/>
    <path class="st5" d="M177.5,279.8h1.5c11.6-.5,35.2-10.1,45.6-16.1,25.1-14.7,40.5-34.8,51.4-60.9.4-.9.6-1.6,1-2.4.3-.8.6-1.6,1-2.4.2-.5.3-.9.5-1.5s.3-.9.5-1.5c.1-.5.3-.9.5-1.5s.3-.8.5-1.5c4.4-14.7,6.8-28.6,5.9-44.1-.3-4.6-4-19.4-2.9-22.2,1-2.7,5.6-4.1,8.3-3.9,3,1.1,4,2.7,5.4,5.4,5.5,19.9,2.7,48.3-2.4,68.2-.8,2.6-2,6.3-2.9,8.8-.2.6-.7,1.6-1,2.4-40,95.2-167.5,118.3-237.2,41.2C-21.5,165.8,28.1,38.4,136.8,24.5c2.4-.3,13.3-.1,14.1-.5,1.8-.8-.3-7.7,1.5-8.3l44.6,13.9-44.6,18.3-1-10.7c-84.7-.5-143,84.3-112.8,163.9,20.9,55.1,81,87.4,138.8,78.7h.1Z"/>
    <path class="st4" d="M164.3,116.6c1.5,0,10.4-.2,10.7.2v161.5c-7.7.4-15.6,2.4-23.4.7V116.8c.4-.5,11.1-.3,12.7-.2h0Z"/>
    <path class="st8" d="M132.7,142.4v134.5c-2.7-.4-22.3-5.8-22.9-7.1v-127.1c.9-2,20.1,0,22.9-.2h0Z"/>
    <path class="st9" d="M140.9,179.4c.2,32.7-.2,65.4,0,98.2l-3.4-.5v-129.3c-1.5-4.7,2.8-3,3.4-1.2,1.1,3.2,0,27.3,0,32.9h0Z"/>
    <path class="st7" d="M135.6,140.9c-2.2,0-2.7,1.4-2.9,1.5-2.8.2-22-1.8-22.9.2v127.2c.6,1.2,20.2,6.7,22.9,7.1.5,0,3.4,1.4,3.9.2l1-129.3v129.3l3.4.5c-.2-32.7.2-65.4,0-98.2l1-32.9v131.5l1-133.5c-2.1-.2-4.8-2.6-6.3-3.2l7.3,2.7v134l5.6,1.2.7-163.9,29.7.7c-4-.9-9.2-.6-13.4-.5-.9,0-2.4-.5-2.2,1-1.6,0-12.3-.3-12.7.2v162.2c7.7,1.7,15.7-.3,23.4-.7.1,0,1.4,1.5,2.4,1.5-57.8,8.8-117.9-23.6-138.8-78.7C8.5,121.5,66.7,36.7,151.4,37.2l1,10.7,44.6-18.3-44.6-13.9c-1.8.6.3,7.5-1.5,8.3-.8.4-11.8.2-14.1.5C28.1,38.4-21.5,165.8,52.8,247.9c69.7,77.1,197.3,54.1,237.2-41.2-33.6,91.6-154.5,117.1-226.8,53.6C-26.3,181.6,18.9,38.7,136.3,23c2.2-.3,12.4-.2,13.2-.5,3.5-1.5-4.9-9.3,7.8-7.8l44.1,14.4c.3.8-2.1,1.9-2.7,2.2-3.8,2-44.2,18.4-46.8,18.5-.5,0-1.4.2-1.7-.2v-10.2c-32.5-2-67.5,15.3-88.7,39.5-40.6,46.5-38.8,117.3,4.2,161.5l.7-74.8c11.9.7,25-3.4,35.6,3.4v97.4l5.1,2.7,1.2-127.9c.6-1.3,24.6-.9,27.3-.2h0Z"/>
    <path class="st1" d="M90.8,166.2l-.5,94c-8.2-5.2-15.9-11.5-22.9-18.3l.5-75.5c7.6.6,15.2-.6,22.9-.2h0Z"/>
    <path class="st6" d="M98.6,264.7l.5-93.8c-.2-.5-2.8-1.6-3.4-1.2-4.1,2.2,1.1,82.2-1,92.8-2.2.4-2.9-1.3-4.4-2.2l.5-94c.3,0,1.4-.7,2.7-.5,2.6.3,4.8,4.1,7.6,3.2v96l-.7.7c-.4-1.2-.6-.5-1.7-1h0Z"/>
    <path class="st9" d="M98.6,264.7c-1.2-.5-2.5-1.1-3.4-2.2l.5-92.8c.7-.4,3.2.7,3.4,1.2l-.5,93.8h0Z"/>
    <path class="st9" d="M180.9,119.5c.4.2,1.1,0,1.5.7v156.9c-4,1.6-3.1.3-3.4-2.7V119.2c.7-.7,1.3,0,1.9.2h0Z"/>
    <path class="st7" d="M275.9,202.8c-10.9,26.1-26.3,46.2-51.4,60.9-10.3,6-33.9,15.5-45.6,16.1.5-3-3.6-3.3,0-5.4.3,3-.6,4.3,3.4,2.7V120.2c-.4-.8-1.1-.6-1.5-.7v-2.9c1.7.6,3.7.6,4.9,2.2l.2,157.6,5.6-1.7.7-182.9c11.6,1.1,24.1-2.8,34.4,4.1v163.7c21.7-12.6,39.1-33.8,49.2-56.8h.1Z"/>
    <path class="st6" d="M193.3,93.2l23.1.7v172c-2.4,1.7-22.4,9.8-23.4,8.3l.2-181h0Z"/>
    <path class="st9" d="M220.1,96.1c.4-.2,3.4,1.6,3.6,2.2v163.2l-3.2,2.2-.5-167.6h0Z"/>
    <path class="st6" d="M183.6,122.9l1.2,76.7-.7,77.7c-1.5-51.4-.6-103-.5-154.4h0Z"/>
    <path class="st6" d="M218.2,101.5c1.5,54,.6,108.2.5,162.2l-.2-84-.2-78.2h-.1Z"/>
    <path class="st6" d="M149.5,103.9c1.2-.2.5,1-.5,1-.5-.2.4-1,.5-1Z"/>
  </g>
  <path class="st7" d="M189.3,86.4c-37.1,26.1-91.2,51.1-136.1,58.5-.9.1-3.5.7-4.2,0,2.7-.8,5.4-1.6,8.1-2.5,50.1-15.4,88.9-32.8,128.7-67.3,4.1-3.6,9-6.5,12.8-10.6,0-1.5-7.4-3.1-9.1-3.7-1.2-1.2,28.9-12.2,31.2-12l-6.4,31.9-6.6-9.1c-6.1,5-12,10.2-18.4,14.7h0Z"/>
  <g class="st2">
    <g class="st2">
      <text class="st3" transform="translate(296.4 290.1)"><tspan x="0" y="0">RVC</tspan></text>
      <g>
        <path class="st0" d="M407.3,290.1h-12.8c-17.3,0-26-9-26-27.1v-91.6c0-4.1-1.4-7.6-4.3-10.5s-6.4-4.3-10.5-4.3h-12.8v126.8h9.2v6.7h-48.1v-6.7h9.2V37.7h-9.2v-6.7h51.7c12.3,0,22.8,3.7,31.4,11.1,8.7,7.4,13,16.3,13,26.6v50c0,16.1-8.6,27.6-25.8,34.3,17.2,7.2,25.8,18.7,25.8,34.5v85.8c0,6.6,2.8,9.9,8.5,9.9h.7v6.7ZM368.5,135.1V52.5c0-4.1-1.4-7.6-4.3-10.5s-6.4-4.3-10.5-4.3h-12.8v112.2h12.8c4.1,0,7.6-1.4,10.5-4.3s4.3-6.4,4.3-10.5Z"/>
        <path class="st0" d="M511,37.7h-9.2l-26,252.4h-29.4l-24.2-252.4h-9.2v-6.7h48.1v6.7h-9.2l19.3,221.7,21.5-221.7h-9.4v-6.7h27.8v6.7Z"/>
        <path class="st0" d="M612.7,254.1c0,10.4-4.3,19.2-13,26.6-8.7,7.4-19.2,11.1-31.4,11.1s-22.6-3.7-31.3-11.1c-8.7-7.4-13.1-16.3-13.1-26.6V67c0-10.4,4.4-19.2,13.1-26.6,8.7-7.4,19.2-11.1,31.3-11.1s22.8,3.7,31.4,11.1c8.7,7.4,13,16.3,13,26.6v41.7h-29.6v-58c0-4.1-1.4-7.6-4.3-10.5s-6.4-4.3-10.5-4.3-7.6,1.4-10.5,4.3-4.3,6.4-4.3,10.5v219.7c0,4.1,1.4,7.6,4.3,10.5s6.4,4.3,10.5,4.3,7.6-1.4,10.5-4.3,4.3-6.4,4.3-10.5v-58h29.6v41.7Z"/>
      </g>
    </g>
  </g>
</svg>