<?xml version="1.0" encoding="UTF-8"?>
<svg id="Capa_1" xmlns="http://www.w3.org/2000/svg" version="1.1" xmlns:xlink="http://www.w3.org/1999/xlink" viewBox="0 0 465 297">
  <!-- Generator: Adobe Illustrator 29.8.2, SVG Export Plug-In . SVG Version: 2.1.1 Build 3)  -->
  <defs>
    <style>
      .st0 {
        fill: #a8d2ff;
      }

      .st1 {
        font-family: NiagaraSolid-Reg, 'Niagara Solid';
        font-size: 300px;
      }

      .st2 {
        fill: #4a8fe3;
      }

      .st3 {
        fill: url(#Degradado_sin_nombre_3);
      }

      .st4, .st5 {
        fill: #1a5bac;
      }

      .st6 {
        fill: #0a2d5e;
      }

      .st7 {
        fill: url(#Degradado_sin_nombre_18);
      }

      .st8 {
        fill: #6af;
      }

      .st9 {
        fill: url(#Degradado_sin_nombre_31);
      }

      .st5 {
        stroke: #0c3368;
        stroke-miterlimit: 10;
      }

      .st10 {
        fill: #87c1ff;
      }
    </style>
    <linearGradient id="Degradado_sin_nombre_3" data-name="Degradado sin nombre 3" x1="448.7" y1="910.5" x2="448.7" y2="910.5" gradientTransform="translate(0 -716)" gradientUnits="userSpaceOnUse">
      <stop offset="0" stop-color="#0a2d5e"/>
      <stop offset=".4" stop-color="#1a5bac"/>
      <stop offset=".5" stop-color="#4a8fe3"/>
      <stop offset="1" stop-color="#87c1ff"/>
    </linearGradient>
    <linearGradient id="Degradado_sin_nombre_31" data-name="Degradado sin nombre 3" x1="451.3" y1="861.6" x2="192.2" y2="876.4" xlink:href="#Degradado_sin_nombre_3"/>
    <linearGradient id="Degradado_sin_nombre_18" data-name="Degradado sin nombre 18" x1="18.2" y1="145.8" x2="187.7" y2="145.8" gradientUnits="userSpaceOnUse">
      <stop offset="0" stop-color="#1a5bac"/>
      <stop offset="1" stop-color="#83befd"/>
    </linearGradient>
  </defs>
  <g id="Objeto_generativo">
    <path class="st6" d="M334.7,114.3c-1.6,0-12.4-.1-12.8.4v162.2c8.5.3,15.7-.3,23.4-.7.1,0,1.4,1.8,2.4,1.8-57.8,8.8-117.9-23.9-138.8-79-30.2-79.5,28-164.3,112.7-163.8l.2,11,45.4-18.6-44.6-13.9c-1.8.6.3,7.5-1.5,8.3-.8.4-11.8.2-14.1.5-108.7,13.9-158.3,141.3-84,223.4,69.7,77.1,197.3,54.1,237.2-41.2-33.6,91.6-154.5,117.1-226.8,53.6-89.5-78.7-44.3-221.6,73.1-237.3,2.2-.3,12.4-.2,13.2-.5.6-4.3.6-3.8-.3-10.5l52.2,17.1c-1.5,1.3-3.5,2.2-4,2.5-3.8,2-43.9,17.8-45.3,18-.5,0-1.3.5-1.9.3v-10.5c-32.5-2-67.5,15.3-88.7,39.5-40.6,46.5-38.8,117.3,4.2,161.5l.7-74.8c11.9.7,25-3.4,35.6,3.4v97.4l5.1,2.7,1.2-127.9c.5-1.2,24.5-.7,24.5-.7,0,0,0,1.6,0,2.1-2.8-.1-21.4-1.2-22.9,0v127.2c.6,1.2,20.2,6.7,22.9,7.1.6.1,2.1.3,3.6.6s.1,0,.1-.1l1.1-129.5v129.7c-.1,0,3.4.5,3.4.5-.2-32.7.1-65.3,0-98.1l1-32.9v131.1c.1,0,1-132.9,1-132.9-1.6-.3-9.9-2.4-10.2-2.5,0-1.1,0-1.9.1-2.1l11.2,3.5v134.3l5.9.6.4-163.6,29.7.8"/>
    <path class="st6" d="M350.2,114.1c1.1.4.8.5.9.5v2.9c-.6-.3-1.2-.9-1.9-.2v155.2c-3.6,2.1.5,2.4,0,5.4-.5,0-1.1,0-1.6,0-1.1,0-2.2-1.6-2.3-1.6V114.8c-.4-.5-10.7-.5-10.7-.5,0-.2,0-.6,0-.6,0,0,.7,0,1.6,0,4.1,0,10.1-.5,14.1.4h0Z"/>
    <path class="st4" d="M313,143l-.9,132.9v-131.4c0,0-1.1,32.9-1.1,32.9v-32.6c0-.2-.2-.2-.3-.2-.8-.3-3-1-3-.9l-1.1,131.6c-1.4,0-3.4-.6-3.9-.6v-134.5c.2,0,8.5,2.5,10.2,2.7Z"/>
    <path class="st6" d="M446.1,200.8"/>
    <path class="st3" d="M448.7,194.5"/>
    <path class="st9" d="M459.8,205.3c-40,95.2-164.7,117.3-235.8,41.5-76-81-25.9-210.4,82.8-224.3,2.4-.3,13.3-.1,14.1-.5.7-3.4.5-5.2.6-9l45.4,14.6-45.4,18.6-.2-11c-84.7-.5-142.4,86.2-112.1,164.6,11.3,26,25.1,41.5,41.1,53.5,44.4,33.2,98.1,24.6,98.6,24.5,8.9-1.1,19.2-4.4,28-7.9s12.8-5.3,17.6-8.2c25.8-15.8,40.5-35,51.4-61.1.4-.9,1-1.2,1.8-1,.6,0,13.3,2.1,12.2,5.2"/>
    <path class="st2" d="M345.3,114.6v161.6c-7.6.4-15.7,2.5-23.5.8V114.6c.3-.5,23.2-.4,23.5,0Z"/>
    <path class="st8" d="M302.9,140.4v134.5c-2.7-.4-22.3-5.8-22.9-7.1v-127.1c.9-2,20.1,0,22.9-.2h0Z"/>
    <path class="st10" d="M311.1,177.4c.2,32.7-.1,65.7,0,98.5l-3.5-.5v-132c0,0,1.4.3,3.4,1.1,0,3.7,0,27.4,0,32.9h0Z"/>
    <path class="st0" d="M261,164.3l-.5,94c-8.2-5.2-15.9-11.5-22.9-18.3l.5-75.5c7.6.6,15.2-.6,22.9-.2h0Z"/>
    <path class="st4" d="M268.8,262.6l.5-93.3c-.2-.5-2.8-1.6-3.4-1.2,0,5.9-.5,81.3-.5,92.8-2.2-1.3-3.3-1.8-4.9-2.8l.5-93.9c.3,0,3.3.5,4.9,1.1,2.5.9,2.2.9,5.1,2.2l.2,96.4-2.5-1.3Z"/>
    <path class="st10" d="M268.8,262.6c-1.6-.8-2.2-1-3.4-1.7l.5-92.8c.7-.4,3.2.7,3.4,1.2l-.5,93.3Z"/>
    <path class="st10" d="M352.6,118.2v156.9c-4,1.6-3.4.4-3.4-2.7V117.2c.7-.7,1.3,0,1.9.2,0,0,1.1.1,1.5.8Z"/>
    <path class="st6" d="M446.2,200.8c-10.9,26.1-26.4,46.2-51.5,60.9-10.3,6-33.5,15.3-46.2,16.2-.8-2.2-3-3.2.7-5.5.3,2.1-.7,4.3,3.3,2.7V118.2c-.7-.5-1.2-.7-1.6-.9l-.2-3c1.7.6,3.5,1,5.2,2.5l.2,157.6,5.6-1.5.7-183.1c11.6,1.1,24.1-2.8,34.4,4.1v163.7c21.7-12.6,39.2-33.8,49.3-56.8h.1Z"/>
    <path class="st4" d="M363.5,91.2l23,.7c0,0,.1,0,.1.1v171.8s0,0,0,.1c-2.6,1.8-21.9,9.6-23.3,8.3s0,0,0-.1l.2-180.9h0Z"/>
    <path class="st10" d="M390.3,94.1c.4-.2,3.4,1.6,3.6,2.2v163.2l-3.2,2.2-.5-167.6h0Z"/>
    <path class="st4" d="M353.8,120.9l1.2,76.7-.7,77.7c-1.5-51.4-.6-103-.5-154.4h0Z"/>
    <path class="st4" d="M388.4,99.5c1.5,54,.6,108.2.5,162.2l-.2-84-.2-78.2h-.1Z"/>
    <path class="st4" d="M319.7,101.9c1.2-.2.5,1-.5,1-.5-.2.4-1,.5-1Z"/>
  </g>
  <path class="st5" d="M359.5,84.4c-37.1,26.1-91.2,51.1-136.1,58.5-.9.1-3.5.7-4.2,0,2.7-.8,5.4-1.6,8.1-2.5,50.1-15.4,84.7-32.2,129.4-66.1,4.4-3.3,8.5-7,12.3-11.1,0-1.5-7.6-3.8-9.4-4.5-1.2-1.2,28.9-12.2,31.2-12l-6.4,31.9-6.6-9.1c-6.1,5-12,10.2-18.4,14.7h0Z"/>
  <g>
    <text class="st1" transform="translate(13.7 250.9)"><tspan x="0" y="0">RV</tspan></text>
    <g>
      <path class="st7" d="M103.6,250.9h-10.4c-14.1,0-21.1-7.3-21.1-22v-74.3c0-3.3-1.2-6.2-3.5-8.5s-5.2-3.5-8.5-3.5h-10.4v102.8h7.5v5.4H18.2v-5.4h7.5V46.2h-7.5v-5.4h41.9c10,0,18.5,3,25.5,9s10.5,13.2,10.5,21.6v40.6c0,13.1-7,22.4-20.9,27.8,14,5.9,20.9,15.2,20.9,28v69.6c0,5.4,2.3,8.1,6.9,8.1h.6v5.4ZM72.1,125.2V58.2c0-3.3-1.2-6.2-3.5-8.5s-5.2-3.5-8.5-3.5h-10.4v91h10.4c3.3,0,6.2-1.2,8.5-3.5s3.5-5.2,3.5-8.5Z"/>
      <path class="st7" d="M187.7,46.2h-7.5l-21.1,204.6h-23.9l-19.6-204.6h-7.5v-5.4h39v5.4h-7.5l15.7,179.7,17.4-179.7h-7.6v-5.4h22.6v5.4Z"/>
    </g>
  </g>
</svg>