<svg xmlns="http://www.w3.org/2000/svg" aria-hidden="true" style="position:absolute;width:0;height:0;overflow:hidden">
  <defs>
    <!-- Navigation & Actions -->
    <symbol id="search" viewBox="0 0 24 24" fill="none" stroke="currentColor" stroke-width="2" stroke-linecap="round" stroke-linejoin="round">
      <circle cx="11" cy="11" r="8"/>
      <path d="m21 21-4.35-4.35"/>
    </symbol>
    <symbol id="filter" viewBox="0 0 24 24" fill="none" stroke="currentColor" stroke-width="2" stroke-linecap="round" stroke-linejoin="round">
      <polygon points="22 3 2 3 10 12.46 10 19 14 21 14 12.46 22 3"/>
    </symbol>
    <symbol id="refresh" viewBox="0 0 24 24" fill="none" stroke="currentColor" stroke-width="2" stroke-linecap="round" stroke-linejoin="round">
      <polyline points="23 4 23 10 17 10"/>
      <polyline points="1 20 1 14 7 14"/>
      <path d="M3.51 9a9 9 0 0 1 14.13-3.36L23 10"/>
      <path d="M20.49 15a9 9 0 0 1-14.13 3.36L1 14"/>
    </symbol>
    <symbol id="refresh-cw" viewBox="0 0 24 24" fill="none" stroke="currentColor" stroke-width="2" stroke-linecap="round" stroke-linejoin="round">
      <path d="M3 12a9 9 0 0 1 9-9 9.75 9.75 0 0 1 6.74 2.74L21 8"/>
      <path d="M21 3v5h-5"/>
      <path d="M21 12a9 9 0 0 1-9 9 9.75 9.75 0 0 1-6.74-2.74L3 16"/>
      <path d="M3 21v-5h5"/>
    </symbol>
    <symbol id="trash" viewBox="0 0 24 24" fill="none" stroke="currentColor" stroke-width="2" stroke-linecap="round" stroke-linejoin="round">
      <path d="M3 6h18"/>
      <path d="M19 6v14c0 1-1 2-2 2H7c-1 0-2-1-2-2V6"/>
      <path d="M8 6V4c0-1 1-2 2-2h4c1 0 2 1 2 2v2"/>
      <line x1="10" x2="10" y1="11" y2="17"/>
      <line x1="14" x2="14" y1="11" y2="17"/>
    </symbol>

    <!-- Financial & Business -->
    <symbol id="trophy" viewBox="0 0 24 24" fill="none" stroke="currentColor" stroke-width="2" stroke-linecap="round" stroke-linejoin="round">
      <path d="M6 9H4.5a2.5 2.5 0 0 1 0-5H6"/>
      <path d="M18 9h1.5a2.5 2.5 0 0 0 0-5H18"/>
      <path d="M4 22h16"/>
      <path d="M10 14.66V17c0 .55-.47.98-.97 1.21C7.85 18.75 7 20.24 7 22"/>
      <path d="M14 14.66V17c0 .55.47.98.97 1.21C16.15 18.75 17 20.24 17 22"/>
      <path d="M18 2H6v7a6 6 0 0 0 12 0V2Z"/>
    </symbol>
    <symbol id="award" viewBox="0 0 24 24" fill="none" stroke="currentColor" stroke-width="2" stroke-linecap="round" stroke-linejoin="round">
      <circle cx="12" cy="8" r="6"/>
      <path d="M15.477 12.89 17 22l-5-3-5 3 1.523-9.11"/>
    </symbol>
    <symbol id="trending-up" viewBox="0 0 24 24" fill="none" stroke="currentColor" stroke-width="2" stroke-linecap="round" stroke-linejoin="round">
      <polyline points="22 7 13.5 15.5 8.5 10.5 2 17"/>
      <polyline points="16 7 22 7 22 13"/>
    </symbol>
    <symbol id="line-chart" viewBox="0 0 24 24" fill="none" stroke="currentColor" stroke-width="2" stroke-linecap="round" stroke-linejoin="round">
      <path d="M3 3v18h18"/>
      <path d="m19 9-5 5-4-4-3 3"/>
    </symbol>
    <symbol id="building-2" viewBox="0 0 24 24" fill="none" stroke="currentColor" stroke-width="2" stroke-linecap="round" stroke-linejoin="round">
      <path d="M6 22V4a2 2 0 0 1 2-2h8a2 2 0 0 1 2 2v18Z"/>
      <path d="M6 12H4a2 2 0 0 0-2 2v6a2 2 0 0 0 2 2h2"/>
      <path d="M18 9h2a2 2 0 0 1 2 2v9a2 2 0 0 1-2 2h-2"/>
      <path d="M10 6h4"/>
      <path d="M10 10h4"/>
      <path d="M10 14h4"/>
      <path d="M10 18h4"/>
    </symbol>
    <symbol id="star" viewBox="0 0 24 24" fill="none" stroke="currentColor" stroke-width="2" stroke-linecap="round" stroke-linejoin="round">
      <polygon points="12 2 15.09 8.26 22 9.27 17 14.14 18.18 21.02 12 17.77 5.82 21.02 7 14.14 2 9.27 8.91 8.26 12 2"/>
    </symbol>

    <!-- Tech & Innovation -->
    <symbol id="rocket" viewBox="0 0 24 24" fill="none" stroke="currentColor" stroke-width="2" stroke-linecap="round" stroke-linejoin="round">
      <path d="M4.5 16.5c-1.5 1.26-2 5-2 5s3.74-.5 5-2c.71-.84.7-2.13-.09-2.91a2.18 2.18 0 0 0-2.91-.09z"/>
      <path d="m12 15-3-3a22 22 0 0 1 2-3.95A12.88 12.88 0 0 1 22 2c0 2.72-.78 7.5-6 11a22.35 22.35 0 0 1-4 2z"/>
      <path d="M9 12H4s.55-3.03 2-4c1.62-1.08 5 0 5 0"/>
      <path d="M12 15v5s3.03-.55 4-2c1.08-1.62 0-5 0-5"/>
    </symbol>
    <symbol id="laptop" viewBox="0 0 24 24" fill="none" stroke="currentColor" stroke-width="2" stroke-linecap="round" stroke-linejoin="round">
      <path d="M20 16V7a2 2 0 0 0-2-2H6a2 2 0 0 0-2 2v9m16 0H4m16 0 1.28 2.55a1 1 0 0 1-.9 1.45H3.62a1 1 0 0 1-.9-1.45L4 16"/>
    </symbol>

    <!-- Alerts & Status -->
    <symbol id="alert-triangle" viewBox="0 0 24 24" fill="none" stroke="currentColor" stroke-width="2" stroke-linecap="round" stroke-linejoin="round">
      <path d="m21.73 18-8-14a2 2 0 0 0-3.48 0l-8 14A2 2 0 0 0 4 21h16a2 2 0 0 0 1.73-3Z"/>
      <path d="M12 9v4"/>
      <path d="M12 17h.01"/>
    </symbol>
  </defs>
</svg>
