<svg xmlns="http://www.w3.org/2000/svg" aria-hidden="true" style="position:absolute;width:0;height:0;overflow:hidden">
  <defs>
    <symbol id="search" viewBox="0 0 24 24" fill="none" stroke="currentColor" stroke-width="2" stroke-linecap="round" stroke-linejoin="round">
      <circle cx="11" cy="11" r="7"/>
      <line x1="21" y1="21" x2="16.65" y2="16.65"/>
    </symbol>
    <symbol id="refresh" viewBox="0 0 24 24" fill="none" stroke="currentColor" stroke-width="2" stroke-linecap="round" stroke-linejoin="round">
      <polyline points="23 4 23 10 17 10"/>
      <polyline points="1 20 1 14 7 14"/>
      <path d="M3.51 9a9 9 0 0 1 14.13-3.36L23 10"/>
      <path d="M20.49 15a9 9 0 0 1-14.13 3.36L1 14"/>
    </symbol>
    <symbol id="trash" viewBox="0 0 24 24" fill="none" stroke="currentColor" stroke-width="2" stroke-linecap="round" stroke-linejoin="round">
      <polyline points="3 6 5 6 21 6"/>
      <path d="M19 6l-1 14a2 2 0 0 1-2 2H8a2 2 0 0 1-2-2L5 6"/>
      <path d="M10 11v6"/>
      <path d="M14 11v6"/>
      <path d="M9 6V4a2 2 0 0 1 2-2h2a2 2 0 0 1 2 2v2"/>
    </symbol>
    <symbol id="trophy" viewBox="0 0 24 24" fill="none" stroke="currentColor" stroke-width="2" stroke-linecap="round" stroke-linejoin="round">
      <path d="M8 21h8"/>
      <path d="M12 17v4"/>
      <path d="M7 4h10v3a5 5 0 0 1-10 0V4z"/>
      <path d="M5 7a3 3 0 0 1-3-3V3h5"/>
      <path d="M19 7a3 3 0 0 0 3-3V3h-5"/>
    </symbol>
    <symbol id="star" viewBox="0 0 24 24" fill="none" stroke="currentColor" stroke-width="2" stroke-linecap="round" stroke-linejoin="round">
      <polygon points="12 2 15 9 22 9 17 14 19 21 12 17 5 21 7 14 2 9 9 9 12 2"/>
    </symbol>
    <symbol id="chart" viewBox="0 0 24 24" fill="none" stroke="currentColor" stroke-width="2" stroke-linecap="round" stroke-linejoin="round">
      <line x1="3" y1="3" x2="3" y2="21"/>
      <line x1="3" y1="21" x2="21" y2="21"/>
      <polyline points="7 17 11 13 15 15 21 9"/>
      <circle cx="7" cy="17" r="1"/>
      <circle cx="11" cy="13" r="1"/>
      <circle cx="15" cy="15" r="1"/>
      <circle cx="21" cy="9" r="1"/>
    </symbol>
    <symbol id="alert-triangle" viewBox="0 0 24 24" fill="none" stroke="currentColor" stroke-width="2" stroke-linecap="round" stroke-linejoin="round">
      <path d="M10.29 3.86L1.82 18a2 2 0 0 0 1.71 3h16.94a2 2 0 0 0 1.71-3L13.71 3.86a2 2 0 0 0-3.42 0z"/>
      <line x1="12" y1="9" x2="12" y2="13"/>
      <line x1="12" y1="17" x2="12.01" y2="17"/>
    </symbol>
    <symbol id="building" viewBox="0 0 24 24" fill="none" stroke="currentColor" stroke-width="2" stroke-linecap="round" stroke-linejoin="round">
      <rect x="3" y="3" width="18" height="18" rx="2" ry="2"/>
      <path d="M7 7h3v3H7zM14 7h3v3h-3zM7 14h3v3H7zM14 14h3v3h-3z"/>
    </symbol>
    <symbol id="rocket" viewBox="0 0 24 24" fill="none" stroke="currentColor" stroke-width="2" stroke-linecap="round" stroke-linejoin="round">
      <path d="M4.5 16.5L3 21l4.5-1.5L19 8a5 5 0 0 0-7-7L4.5 16.5z"/>
      <path d="M15 7l2 2"/>
      <path d="M7 13l4 4"/>
    </symbol>
    <symbol id="laptop" viewBox="0 0 24 24" fill="none" stroke="currentColor" stroke-width="2" stroke-linecap="round" stroke-linejoin="round">
      <rect x="3" y="4" width="18" height="12" rx="2"/>
      <path d="M2 20h20"/>
    </symbol>
    <symbol id="medal-gold" viewBox="0 0 24 24" fill="none" stroke="currentColor" stroke-width="2" stroke-linecap="round" stroke-linejoin="round">
      <circle cx="12" cy="8" r="4"/>
      <path d="M8 12l-3 8 7-4 7 4-3-8"/>
    </symbol>
    <symbol id="medal-silver" viewBox="0 0 24 24" fill="none" stroke="currentColor" stroke-width="2" stroke-linecap="round" stroke-linejoin="round">
      <circle cx="12" cy="8" r="4"/>
      <path d="M8 12l-3 8 7-4 7 4-3-8"/>
    </symbol>
    <symbol id="medal-bronze" viewBox="0 0 24 24" fill="none" stroke="currentColor" stroke-width="2" stroke-linecap="round" stroke-linejoin="round">
      <circle cx="12" cy="8" r="4"/>
      <path d="M8 12l-3 8 7-4 7 4-3-8"/>
    </symbol>
  </defs>
</svg>
